<svg xmlns="http://www.w3.org/2000/svg" xmlns:xlink="http://www.w3.org/1999/xlink" width="900" height="1080" viewBox="0 0 900 1080"><defs><style>.a{fill:url(#a);}.b{fill:url(#b);}.c{clip-path:url(#c);}.d{opacity:0.201;}.e,.h{opacity:0.7;}.e{fill:url(#d);}.f,.i,.m{fill:none;}.f{stroke:#a3a0fb;}.f,.g,.i,.j{stroke-width:2px;}.g,.j,.k{fill:#fff;}.g{stroke:#a4a1fb;}.h{fill:url(#f);}.i{stroke:#54d8ff;}.j{stroke:#55d8fe;}.k{font-size:18px;font-family:ArialMT, Arial;}.l{stroke:none;}</style><linearGradient id="a" y1="1" x2="1" gradientUnits="objectBoundingBox"><stop offset="0" stop-color="#5c6ccd"/><stop offset="1" stop-color="#5753b5"/></linearGradient><linearGradient id="b" x1="0.897" y1="0.14" x2="0.206" y2="0.877" gradientUnits="objectBoundingBox"><stop offset="0" stop-color="#0070bf"/><stop offset="1" stop-color="#77c2ff"/></linearGradient><clipPath id="c"><rect class="a" width="900" height="1080"/></clipPath><linearGradient id="d" x1="0.5" x2="0.5" y2="1" gradientUnits="objectBoundingBox"><stop offset="0" stop-color="#a7a7ff"/><stop offset="1" stop-color="#fff" stop-opacity="0"/></linearGradient><linearGradient id="f" x1="0.5" x2="0.5" y2="1" gradientUnits="objectBoundingBox"><stop offset="0" stop-color="#54d8ff"/><stop offset="1" stop-color="#fff" stop-opacity="0"/></linearGradient></defs><path class="b" d="M0,0H900V1080H0Z"/><g class="c"><g class="d" transform="translate(-616.783 319.65)"><path class="e" d="M330,822.827V577.385s347.067,160.989,624.375,171.1c299.857-9.8,351.78-78.7,585.346-171.1,199.593-77.019,398.639-98.157,589.689-92.715s356.639,88.642,582.313,97.168c398.114-34.351,601.233-208.025,628.131-280.561V914.109L330,914.381Z" transform="translate(-330 -298.414)"/><path class="f" d="M313,524.853S657.826,689.679,930.471,693.228s377.367-85.057,586.195-168.156,407.352-97.281,590.123-94.488,360.451,89.875,585.022,94.5,587.881-150.528,628.281-279.841" transform="translate(-310.238 -245.24)"/><g class="g" transform="translate(1193.198 267.186)"><circle class="l" cx="13.792" cy="13.792" r="13.792"/><circle class="m" cx="13.792" cy="13.792" r="12.792"/></g><g class="g" transform="translate(794.397 419.878)"><circle class="l" cx="13.792" cy="13.792" r="13.792"/><circle class="m" cx="13.792" cy="13.792" r="12.792"/></g></g><g class="d" transform="translate(-759.658 581.775)"><path class="e" d="M330,822.827V577.385s347.067,160.989,624.375,171.1c299.857-9.8,351.78-78.7,585.346-171.1,199.593-77.019,398.639-98.157,589.689-92.715s356.639,88.642,582.313,97.168c398.114-34.351,601.233-208.025,628.131-280.561V914.109L330,914.381Z" transform="translate(-330 -298.414)"/><path class="f" d="M313,524.853S657.826,689.679,930.471,693.228s377.367-85.057,586.195-168.156,407.352-97.281,590.123-94.488,360.451,89.875,585.022,94.5,587.881-150.528,628.281-279.841" transform="translate(-310.238 -245.24)"/><g class="g" transform="translate(1193.198 267.186)"><circle class="l" cx="13.792" cy="13.792" r="13.792"/><circle class="m" cx="13.792" cy="13.792" r="12.792"/></g></g><g class="d" transform="translate(-792.337 344.74)"><path class="h" d="M330,729.221v-374.8S668.745,727.05,947.009,741.074c310.474-3.158,313.019-193.446,585.844-297.617,228.4-81.794,402.685,141.325,593.733,146.767s322.9-152.916,583.55-163.918c337.7,16.568,608.682,228.141,629.71,239.517V820.5L330,820.775Z" transform="translate(-328.134 -354.422)"/><path class="i" d="M312.953,279.164s349.288,379.5,622.27,383.044,366.332-223.6,585.516-300.177S1930.066,508.1,2113.064,510.9s358.206-167.271,583.055-162.649,481.924,133.267,624.045,234.746" transform="translate(-312.953 -275.989)"/><g class="j" transform="translate(2362.839 57.949)"><circle class="l" cx="13.792" cy="13.792" r="13.792"/><circle class="m" cx="13.792" cy="13.792" r="12.792"/></g><g class="j" transform="translate(1283.783 57.019)"><circle class="l" cx="13.792" cy="13.792" r="13.792"/><circle class="m" cx="13.792" cy="13.792" r="12.792"/></g></g><g class="d" transform="translate(-1132.901 468.869)"><path class="h" d="M330,729.221v-374.8S668.745,727.05,947.009,741.074c310.474-3.158,313.019-193.446,585.844-297.617,228.4-81.794,402.685,141.325,593.733,146.767s322.9-152.916,583.55-163.918c337.7,16.568,608.682,228.141,629.71,239.517V820.5L330,820.775Z" transform="translate(-329.259 -354.422)"/><path class="i" d="M312.953,279.164s349.288,379.5,622.27,383.044,366.332-223.6,585.516-300.177S1930.066,508.1,2113.064,510.9s358.206-167.271,583.055-162.649,481.924,133.267,624.045,234.746" transform="translate(-312.953 -275.989)"/><g class="j" transform="translate(1897.887 205.118)"><circle class="l" cx="13.792" cy="13.792" r="13.792"/><circle class="m" cx="13.792" cy="13.792" r="12.792"/></g><g class="j" transform="translate(1191.154 71.755)"><circle class="l" cx="13.792" cy="13.792" r="13.792"/><circle class="m" cx="13.792" cy="13.792" r="12.792"/></g></g></g><text class="k" transform="translate(296 115)"><tspan x="0" y="0">Please provide the image for this area.</tspan></text></svg>