<svg xmlns="http://www.w3.org/2000/svg" width="18.099" height="18.509" viewBox="0 0 18.099 18.509"><defs><style></style></defs><g transform="translate(-5.411)"><g transform="translate(5.411)"><path d="M119.341,258.662a.42.42,0,0,0-.42-.42h-1.466a.42.42,0,0,0-.42.42v1.466a.42.42,0,0,0,.42.42h1.466a.42.42,0,0,0,.42-.42v-1.466Z" transform="translate(-112.803 -248.45)"/><path d="M215.976,258.662a.42.42,0,0,0-.42-.42H214.09a.42.42,0,0,0-.42.42v1.466a.42.42,0,0,0,.42.42h1.466a.42.42,0,0,0,.42-.42Z" transform="translate(-205.773 -248.45)"/><path d="M312.6,258.662a.42.42,0,0,0-.42-.42h-1.466a.42.42,0,0,0-.42.42v1.466a.42.42,0,0,0,.42.42h1.466a.42.42,0,0,0,.42-.42Z" transform="translate(-298.738 -248.45)"/><path d="M119.341,355.295a.42.42,0,0,0-.42-.42h-1.466a.42.42,0,0,0-.42.42v1.466a.42.42,0,0,0,.42.42h1.466a.42.42,0,0,0,.42-.42v-1.466Z" transform="translate(-112.803 -341.419)"/><path d="M215.976,355.295a.42.42,0,0,0-.42-.42H214.09a.42.42,0,0,0-.42.42v1.466a.42.42,0,0,0,.42.42h1.466a.42.42,0,0,0,.42-.42Z" transform="translate(-205.773 -341.419)"/><path d="M312.6,355.295a.42.42,0,0,0-.42-.42h-1.466a.42.42,0,0,0-.42.42v1.466a.42.42,0,0,0,.42.42h1.466a.42.42,0,0,0,.42-.42v-1.466Z" transform="translate(-298.738 -341.419)"/><path d="M21.9,54.15v2.239a1.829,1.829,0,0,1-1.833,1.828H18.91a1.838,1.838,0,0,1-1.844-1.828V54.142H11.855v2.247a1.838,1.838,0,0,1-1.844,1.828H8.855a1.829,1.829,0,0,1-1.833-1.828V54.15a1.667,1.667,0,0,0-1.611,1.658V68.93A1.667,1.667,0,0,0,7.07,70.6H21.851A1.669,1.669,0,0,0,23.51,68.93V55.808A1.667,1.667,0,0,0,21.9,54.15Zm-.537,13.962a.717.717,0,0,1-.717.717H8.245a.717.717,0,0,1-.717-.717V61.335a.717.717,0,0,1,.717-.717h12.4a.717.717,0,0,1,.717.717v6.778Z" transform="translate(-5.411 -52.089)"/><path d="M80.179,4.927h1.144a.628.628,0,0,0,.629-.628V.628A.628.628,0,0,0,81.322,0H80.179a.628.628,0,0,0-.629.628V4.3A.628.628,0,0,0,80.179,4.927Z" transform="translate(-76.739)"/><path d="M345.087,4.927h1.144a.628.628,0,0,0,.628-.628V.628A.628.628,0,0,0,346.23,0h-1.144a.628.628,0,0,0-.629.628V4.3A.628.628,0,0,0,345.087,4.927Z" transform="translate(-331.602)"/></g></g></svg>