<svg xmlns="http://www.w3.org/2000/svg" width="22.443" height="22.443" viewBox="0 0 22.443 22.443"><defs><style>.a{fill:none;}.b{fill:#fff;fill-rule:evenodd;}</style></defs><rect class="a" width="22" height="22"/><path class="b" d="M2.805,7.013V19.637H19.637V7.013ZM18.235,2.805H21.04a1.325,1.325,0,0,1,1.4,1.4V21.04a1.325,1.325,0,0,1-1.4,1.4H1.4A1.325,1.325,0,0,1,0,21.04V4.208a1.325,1.325,0,0,1,1.4-1.4H4.208V1.4A1.325,1.325,0,0,1,5.611,0a1.325,1.325,0,0,1,1.4,1.4v1.4h8.416V1.4a1.4,1.4,0,1,1,2.805,0Zm-1.4,14.027H14.027V14.027h2.805Zm-4.208,0H9.819V14.027h2.805Zm4.208-4.208H14.027V9.819h2.805Zm-4.208,0H9.819V9.819h2.805ZM8.416,16.832H5.611V14.027H8.416Z"/></svg>