<svg xmlns="http://www.w3.org/2000/svg" width="19.038" height="25.419" viewBox="0 0 19.038 25.419">
    <defs>
        <style>
            .a{fill:#2B3443}
        </style>
    </defs>
    <path class="a" d="M116.377,185.185a.744.744,0,0,0,1.053,0l3.191-3.191a.745.745,0,0,0-1.053-1.053l-1.919,1.919v-5.381a.745.745,0,1,0-1.489,0v5.381l-1.919-1.919a.745.745,0,0,0-1.053,1.053Zm0,0" transform="translate(-107.384 -167.96)"/>
    <path class="a" d="M120.091,385.6H113.71a.745.745,0,1,0,0,1.489h6.381a.745.745,0,1,0,0-1.489Zm0,0" transform="translate(-107.381 -366.458)"/>
    <path class="a" d="M17.2,0H6.03A.745.745,0,0,0,5.5.218L.718,5A.745.745,0,0,0,.5,5.531V23.079a2.343,2.343,0,0,0,2.34,2.34H17.2a2.339,2.339,0,0,0,2.34-2.34V2.34A2.339,2.339,0,0,0,17.2,0ZM6.083,1.745V4.733a.851.851,0,0,1-.851.851H2.244ZM18.048,23.079a.851.851,0,0,1-.851.851H2.84a.852.852,0,0,1-.851-.851V7.073H5.233a2.343,2.343,0,0,0,2.34-2.34V1.489H17.2a.851.851,0,0,1,.851.851Zm0,0" transform="translate(-0.5)"/>
</svg>
