<svg xmlns="http://www.w3.org/2000/svg" width="19.786" height="19.789" viewBox="0 0 19.786 19.789"><defs><style>.a{fill:#fff;}</style></defs><g transform="translate(-10 -7.5)"><path class="a" d="M238.891,13.287h0L239.38,7.9a.374.374,0,0,0-.108-.294.37.37,0,0,0-.259-.108h-.035l-5.376.493a.368.368,0,0,0-.225.627l1.7,1.7-7.569,7.569a.365.365,0,0,0,0,.519l.977.977a.373.373,0,0,0,.523,0l7.569-7.569,1.7,1.7a.368.368,0,0,0,.523,0A.444.444,0,0,0,238.891,13.287Z" transform="translate(-209.595)"/><path class="a" d="M29.681,18.68h-1.76v9.24H11.76V11.76H21V10H10.88a.883.883,0,0,0-.88.88V28.8a.883.883,0,0,0,.88.88H28.8a.883.883,0,0,0,.88-.88Z" transform="translate(0 -2.392)"/></g></svg>