<svg xmlns="http://www.w3.org/2000/svg" xmlns:xlink="http://www.w3.org/1999/xlink" width="21.736" height="20.571" fill="#fff" viewBox="0 0 21.736 20.571"><defs><style>.a{fill:#505465;}.b{clip-path:url(#a);}</style><clipPath id="a"><rect class="a" width="20.571" height="21.264" transform="translate(20.571 21.264) rotate(180)"/></clipPath></defs><g transform="translate(0 20.571) rotate(-90)"><g transform="translate(0)"><g class="b"><path class="a" d="M10.285.256a.882.882,0,0,0-1.243,0,.872.872,0,0,0,0,1.237l2.6,2.588H.879a.874.874,0,1,0,0,1.749H11.643l-2.6,2.588a.877.877,0,0,0,1.243,1.237l4.1-4.081a.871.871,0,0,0,0-1.237Zm0,0" transform="translate(20.419 16.156) rotate(180)"/></g></g><path class="a" d="M9.321,21.736a.988.988,0,0,0,0-1.976H1.929V1.976H9.321a.976.976,0,0,0,.964-.988A.976.976,0,0,0,9.321,0H.964A.976.976,0,0,0,0,.988v19.76a.976.976,0,0,0,.964.988Zm0,0"/></g></svg>