<svg xmlns="http://www.w3.org/2000/svg" width="23.306" height="30.783" viewBox="0 0 23.306 30.783"><defs><style>.a{fill:#fff;stroke:#fff;}</style></defs><g transform="translate(0 0.5)"><path class="a" d="M116.962,186.635a.872.872,0,0,0,1.234,0l3.738-3.738a.872.872,0,0,0-1.234-1.234l-2.249,2.249v-6.3a.873.873,0,1,0-1.745,0v6.3l-2.249-2.249a.873.873,0,0,0-1.234,1.234Zm0,0" transform="translate(-105.926 -166.454)"/><path class="a" d="M121.314,385.6h-7.477a.873.873,0,1,0,0,1.745h7.477a.873.873,0,1,0,0-1.745Zm0,0" transform="translate(-105.923 -363.171)"/><path class="a" d="M20.064,0H6.98a.873.873,0,0,0-.617.256L.755,5.863A.873.873,0,0,0,.5,6.48V27.041a2.745,2.745,0,0,0,2.742,2.742H20.064a2.741,2.741,0,0,0,2.742-2.742V2.742A2.74,2.74,0,0,0,20.064,0ZM7.042,2.044v3.5a1,1,0,0,1-1,1h-3.5Zm14.019,25a1,1,0,0,1-1,1H3.241a1,1,0,0,1-1-1V8.287h3.8A2.745,2.745,0,0,0,8.787,5.546v-3.8H20.064a1,1,0,0,1,1,1Zm0,0"/></g></svg>
