<svg xmlns="http://www.w3.org/2000/svg" width="39.404" height="28.5" viewBox="0 0 39.404 28.5"><defs><style>.a{fill:#2b3443;}</style></defs><path class="a" d="M3329.041,2372.762c-.721-2.465-3.024-3.7-4.828-4.3l-5.379-1.8-3.358-9.307-3.976-3.457.208,10.392-4.9-1.6-2.246-4.666-3.392-1.132-.375,4.654a1.338,1.338,0,0,0-1.23.811c-.249.746.217,1.683,1.387,2.792q.36.341.808.7a15.621,15.621,0,0,0,4.339,2.527l19.228,6.418c1.661.554,2.769.534,3.388-.062a1.833,1.833,0,0,0,.324-1.977Zm-3.291.779-19.229-6.418a14.168,14.168,0,0,1-3.8-2.2,5.82,5.82,0,0,1-1.87-2.035,2.525,2.525,0,0,1,.537-.024l.635.023.339-4.191,1.25.417,2.249,4.671,7.213,2.351-.186-9.268,1.456,1.266,3.459,9.588,5.99,2c2.187.73,3.524,1.879,3.973,3.416h0c.113.387.08.6.03.647,0,0-.36.322-2.046-.241Zm0,0" transform="translate(-3299.501 -2353.899)"/><rect class="a" width="1.328" height="12.397" transform="translate(19.002 24.32) rotate(-70.732)"/><rect class="a" width="12.397" height="1.328" transform="translate(29.575 27.644) rotate(-49.864)"/><rect class="a" width="6.254" height="1.328" transform="translate(32.298 18.799) rotate(-8.349)"/><rect class="a" width="1.328" height="6.254" transform="translate(37.181 18.141) rotate(-8.349)"/></svg>