<svg xmlns="http://www.w3.org/2000/svg" width="35.5" height="26.523" viewBox="0 0 35.5 26.523"><defs><style>.a{fill:#2c324b;}</style></defs><g transform="translate(-2992.449 -2372.804)"><rect class="a" width="33.615" height="1.462" transform="translate(2993.603 2397.865)"/><path class="a" d="M3026.709,2374.841c-2.441-1.423-5.215-.667-7.112.218l-5.655,2.637-9.725-4.892-5.791.249,8.031,8.141-5.118,2.431-5.325-2.026-3.565,1.663,3.221,4a1.472,1.472,0,0,0-.369,1.578c.366.784,1.447,1.179,3.22,1.179q.545,0,1.178-.05a17.176,17.176,0,0,0,5.376-1.266l20.212-9.425c1.746-.814,2.615-1.669,2.659-2.614a2.018,2.018,0,0,0-1.238-1.824Zm-2.038,3.113-20.213,9.425a15.564,15.564,0,0,1-4.7,1.119,6.4,6.4,0,0,1-3.033-.21,2.767,2.767,0,0,1,.41-.426l.525-.462-2.9-3.6,1.314-.613,5.331,2.029,7.539-3.581-7.161-7.26,2.121-.091,10.018,5.039,6.3-2.937c2.3-1.072,4.237-1.166,5.759-.279h0c.383.223.517.418.514.494,0,.006-.044.53-1.816,1.356Zm0,0"/></g></svg>