<svg xmlns="http://www.w3.org/2000/svg" width="22.722" height="21" viewBox="0 0 22.722 21"><defs><style>.a{fill:#fff;}</style></defs><g transform="translate(663.734 1451.25)"><g transform="translate(-663.734 -1451.25)"><path class="a" d="M-662.931-1430.25h21.118a.794.794,0,0,0,.8-.8v-17.908a.794.794,0,0,0-.8-.8h-3.974v-.684a.793.793,0,0,0-.8-.8.793.793,0,0,0-.8.8v.684h-9.825v-.684a.794.794,0,0,0-.8-.8.794.794,0,0,0-.8.8v.684h-4.109a.794.794,0,0,0-.8.8v17.928a.8.8,0,0,0,.8.783Zm.8-17.907h3.307v.43a.794.794,0,0,0,.8.8.8.8,0,0,0,.8-.8v-.43h9.825v.43a.794.794,0,0,0,.8.8.794.794,0,0,0,.8-.8v-.43h3.19v2.074h-19.532Zm0,3.679h19.513v12.643h-19.513Zm0,0" transform="translate(663.734 1451.25)"/></g><path class="a" d="M-612.7-1391.63a1.026,1.026,0,0,0,.054-1.034,1.027,1.027,0,0,0-1.012-.22,3.041,3.041,0,0,0-1.289.587l-1.254.958-4.449-1.715a.2.2,0,0,0-.215.028l-1,.766a.216.216,0,0,0-.087.179.235.235,0,0,0,.1.182l3.253,2.4-2.03,1.551-1.292-.547a.149.149,0,0,0-.054-.014.218.218,0,0,0-.167.041l-.753.581a.235.235,0,0,0-.085.164.208.208,0,0,0,.068.171l1.567,1.54,1.073,1.917a.248.248,0,0,0,.154.112l.014,0a.218.218,0,0,0,.167-.041l.753-.574a.213.213,0,0,0,.084-.207l-.187-1.39,2.031-1.55,1.458,3.77a.192.192,0,0,0,.131.13.151.151,0,0,0,.047.014.2.2,0,0,0,.137-.024l.974-.545a.212.212,0,0,0,.113-.217l-.461-4.959,1.262-.964a3.046,3.046,0,0,0,.906-1.089Zm0,0" transform="translate(-34.816 -49.711)"/></g></svg>