<svg xmlns="http://www.w3.org/2000/svg" width="33.942" height="33.942" viewBox="0 0 33.942 33.942"><defs><style>.a{fill:#2c324b;}</style></defs><path class="a" d="M26.506,22.35,23.313,10.93A12.166,12.166,0,0,0,25.88,7.093c.575-1.488.5-2.7-.219-3.419s-1.93-.794-3.419-.219a12.166,12.166,0,0,0-3.837,2.567L6.984,2.828,2.706,5.071l11.1,6.124c-.848,1.025-1.721,2.11-2.547,3.178q-.679.879-1.255,1.662l-4.751-.163L2.506,17.927l5.005,1.928a6.8,6.8,0,0,0-.346.771c-.09.246-.363.994.094,1.451a.932.932,0,0,0,.683.257,2.3,2.3,0,0,0,.768-.163,6.792,6.792,0,0,0,.771-.346l1.928,5.005,2.054-2.752L13.3,19.326q.783-.575,1.662-1.255c1.068-.826,2.154-1.7,3.178-2.547l6.124,11.1ZM4.958,5.146l2.1-1.1L17.554,6.891c-.783.837-1.858,2.056-3.024,3.441ZM5.61,17l3.618.124q-.683.974-1.161,1.755L4.786,17.613Zm6.727,6.727-.615.824-1.264-3.282q.78-.477,1.756-1.161Zm2.375-6.868c-4.443,3.472-6.043,4.19-6.566,4.332.142-.523.861-2.123,4.332-6.566,2.443-3.126,5.253-6.359,6.456-7.562a11.309,11.309,0,0,1,3.709-2.568,3.993,3.993,0,0,1,1.391-.305,1.16,1.16,0,0,1,.84.273c.375.375.363,1.209-.032,2.231A11.308,11.308,0,0,1,22.274,10.4C21.072,11.6,17.839,14.414,14.712,16.857ZM19,14.8c1.385-1.166,2.6-2.24,3.441-3.024L25.29,22.275l-1.1,2.1Z" transform="translate(-3.772 16.743) rotate(-45)"/></svg>