<svg xmlns="http://www.w3.org/2000/svg" width="30.624" height="29.226" viewBox="0 0 30.624 29.226"><defs><style>.a{fill:#2c324b;}</style></defs><g transform="translate(-3154.463 -2353.899)"><rect class="a" width="30.624" height="1.331" transform="translate(3154.463 2381.793)"/><path class="a" d="M3186.115,2372.8c-.723-2.471-3.031-3.709-4.839-4.313l-5.392-1.8-3.366-9.328-3.985-3.465.208,10.416-4.907-1.6-2.252-4.676-3.4-1.135-.376,4.664a1.341,1.341,0,0,0-1.233.813c-.25.748.218,1.686,1.391,2.8q.361.342.81.7a15.646,15.646,0,0,0,4.348,2.533l19.272,6.433c1.665.555,2.776.535,3.4-.063a1.837,1.837,0,0,0,.324-1.982Zm-3.3.781-19.272-6.433a14.206,14.206,0,0,1-3.811-2.206,5.836,5.836,0,0,1-1.874-2.039,2.515,2.515,0,0,1,.538-.024l.636.023.34-4.2,1.253.418,2.254,4.682,7.23,2.356-.187-9.289,1.459,1.269,3.468,9.609,6,2c2.192.732,3.532,1.884,3.983,3.424h0c.114.388.08.6.03.649,0,0-.361.323-2.051-.242Zm0,0" transform="translate(-1.497)"/></g></svg>