<svg xmlns="http://www.w3.org/2000/svg" width="25.254" height="18.61" viewBox="0 0 25.254 18.61"><defs><style>.a{fill:#fff;}</style></defs><path class="a" d="M79.29,285.89a2.533,2.533,0,1,0,2.531,2.535A2.532,2.532,0,0,0,79.29,285.89Zm0,3.8a1.265,1.265,0,1,1,1.265-1.265A1.267,1.267,0,0,1,79.29,289.69Z" transform="translate(-73.123 -272.345)"/><path class="a" d="M25.254,246.36v2.7a1.221,1.221,0,0,1-1.22,1.221H22.727a3.349,3.349,0,0,0-6.628,0H9.48a3.347,3.347,0,0,0-6.623,0H1.22A1.221,1.221,0,0,1,0,249.062v-2.7H25.254Z" transform="translate(0 -234.688)"/><path class="a" d="M358.815,285.89a2.533,2.533,0,1,0,2.53,2.535A2.535,2.535,0,0,0,358.815,285.89Zm0,3.8a1.265,1.265,0,1,1,1.265-1.265A1.267,1.267,0,0,1,358.815,289.69Z" transform="translate(-339.4 -272.345)"/><path class="a" d="M239.9,7.9,231.977.714A2.823,2.823,0,0,0,230.089,0H226.15V11h14.537V9.591A2.381,2.381,0,0,0,239.9,7.9Zm-3.453.24h-7.664a.3.3,0,0,1-.316-.289V2.421a.3.3,0,0,1,.316-.29h1.457a.358.358,0,0,1,.222.08l6.2,5.428A.286.286,0,0,1,236.443,8.139Z" transform="translate(-215.435)"/></svg>