<svg xmlns="http://www.w3.org/2000/svg" width="21.178" height="21.178" viewBox="0 0 21.178 21.178"><defs><style>.a{fill:#ffffff;}</style></defs><path class="a" d="M222.763,343.22a1.11,1.11,0,0,0,0,2.22,1.11,1.11,0,0,0,0-2.22Z" transform="translate(-212.498 -329.024)"/><path class="a" d="M186.862,140c-1.946,0-2.84,1.153-2.84,1.932a.827.827,0,0,0,.865.822c.779,0,.461-1.11,1.932-1.11.721,0,1.3.317,1.3.98,0,.779-.807,1.226-1.283,1.629a2.639,2.639,0,0,0-.966,2.192c0,.75.2.966.793.966.706,0,.851-.317.851-.591a1.811,1.811,0,0,1,.807-1.8,3.691,3.691,0,0,0,1.615-2.638C189.933,141.026,188.708,140,186.862,140Z" transform="translate(-176.41 -134.211)"/><path class="a" d="M10.589,0A10.583,10.583,0,0,0,0,10.589V20.35a.827.827,0,0,0,.827.827h9.762A10.589,10.589,0,0,0,10.589,0Zm0,19.523H1.655V10.589a8.934,8.934,0,1,1,8.934,8.934Z"/></svg>