<svg xmlns="http://www.w3.org/2000/svg" width="19.936" height="19.835" viewBox="0 0 19.936 19.835"><defs><style>.a{fill:#43515a;}</style></defs><g transform="translate(-7.5 -10)"><path class="a" d="M22.376,171.078a.343.343,0,0,0-.121-.262l-3.87-3.225a.341.341,0,0,0-.56.262v2.237H7.843a.342.342,0,0,0-.343.343v1.29a.342.342,0,0,0,.343.343h9.978V174.3a.342.342,0,0,0,.2.31.363.363,0,0,0,.145.032.349.349,0,0,0,.218-.077l3.87-3.225A.348.348,0,0,0,22.376,171.078Z" transform="translate(0 -151.161)"/><path class="a" d="M28.948,10H10.887a.89.89,0,0,0-.887.887v5.047h1.774v-4.16H28.061V28.061H11.774V23.9H10v5.047a.89.89,0,0,0,.887.887H28.948a.89.89,0,0,0,.887-.887V10.887A.89.89,0,0,0,28.948,10Z" transform="translate(-2.399)"/></g></svg>