<svg xmlns="http://www.w3.org/2000/svg" width="17.755" height="17.755" viewBox="0 0 17.755 17.755"><defs><style>.a,.b,.c,.d,.f,.g,.h{fill:#2699fb;}.a{opacity:0.38;}.c{opacity:0.33;}.d{opacity:0.15;}.e{fill:#fff;opacity:0.06;}.f{opacity:0.74;}.g{opacity:0.65;}.h{opacity:0.59;}</style></defs><path d="M224.859,3.293A.844.844,0,0,1,224,2.434V.859a.859.859,0,0,1,1.718,0V2.434A.862.862,0,0,1,224.859,3.293Z" transform="translate(-215.982)"/><path d="M224.859,407.293a.844.844,0,0,1-.859-.859v-1.575a.859.859,0,1,1,1.718,0v1.575A.844.844,0,0,1,224.859,407.293Z" transform="translate(-215.982 -389.538)"/><path d="M113.773,33.6a.863.863,0,0,1-.745-.43l-.773-1.346a.86.86,0,0,1,1.489-.859l.773,1.346a.877.877,0,0,1-.315,1.174A1.062,1.062,0,0,1,113.773,33.6Z" transform="translate(-108.131 -29.452)"/><path d="M316.173,383.2a.863.863,0,0,1-.745-.43l-.773-1.346a.86.86,0,1,1,1.489-.859l.773,1.346a.877.877,0,0,1-.315,1.174A.808.808,0,0,1,316.173,383.2Z" transform="translate(-303.286 -366.538)"/><path class="d" d="M32.745,114.632a.808.808,0,0,1-.43-.115l-1.346-.773a.86.86,0,1,1,.859-1.489l1.346.773a.877.877,0,0,1,.315,1.174A.863.863,0,0,1,32.745,114.632Z" transform="translate(-29.452 -108.131)"/><path d="M382.374,317.032a.808.808,0,0,1-.43-.115l-1.375-.773a.86.86,0,1,1,.859-1.489l1.346.773a.877.877,0,0,1,.315,1.174A.787.787,0,0,1,382.374,317.032Z" transform="translate(-366.538 -303.286)"/><path class="e" d="M2.434,225.718H.859a.859.859,0,0,1,0-1.718H2.434a.844.844,0,0,1,.859.859A.862.862,0,0,1,2.434,225.718Z" transform="translate(0 -215.982)"/><path class="f" d="M406.434,225.718h-1.575a.859.859,0,1,1,0-1.718h1.575a.859.859,0,0,1,0,1.718Z" transform="translate(-389.538 -215.982)"/><path d="M30.6,317.032a.863.863,0,0,1-.745-.43.877.877,0,0,1,.315-1.174l1.346-.773a.86.86,0,0,1,.859,1.489l-1.346.773A.69.69,0,0,1,30.6,317.032Z" transform="translate(-28.681 -303.286)"/><path class="g" d="M381,114.632a.863.863,0,0,1-.745-.43.877.877,0,0,1,.315-1.174l1.346-.773a.86.86,0,0,1,.859,1.489l-1.346.773A.808.808,0,0,1,381,114.632Z" transform="translate(-366.538 -108.131)"/><path d="M113,383.2a.808.808,0,0,1-.43-.115.877.877,0,0,1-.315-1.174l.773-1.346a.86.86,0,1,1,1.489.859l-.773,1.346A.863.863,0,0,1,113,383.2Z" transform="translate(-108.131 -366.538)"/><path class="h" d="M315.4,33.6a.808.808,0,0,1-.43-.115.877.877,0,0,1-.315-1.174l.773-1.346a.86.86,0,0,1,1.489.859l-.773,1.346A.93.93,0,0,1,315.4,33.6Z" transform="translate(-303.286 -29.452)"/></svg>