<svg xmlns="http://www.w3.org/2000/svg" width="13.537" height="17.613" viewBox="0 0 13.537 17.613">
  <defs>
    <style>.a{fill:#43515a;}</style>
  </defs>
  <g transform="translate(0.231 0.302)">
    <g transform="translate(0)">
      <path class="a"
            d="M159.577,234h-.343V232.4a5.476,5.476,0,0,0-5.3-5.505c-.08,0-.241,0-.322,0a5.476,5.476,0,0,0-5.3,5.505V234h-.343a1.114,1.114,0,0,0-.96,1.22v8.056a1.119,1.119,0,0,0,.96,1.224h11.617a1.119,1.119,0,0,0,.96-1.224v-8.056a1.114,1.114,0,0,0-.96-1.22Zm-4.72,5.24v2.434a.52.52,0,0,1-.512.514h-1.152a.52.52,0,0,1-.512-.514v-2.434a1.474,1.474,0,0,1,.927-2.508c.08,0,.241,0,.322,0a1.474,1.474,0,0,1,.927,2.508Zm2.115-5.24h-6.406V232.4a3.2,3.2,0,1,1,6.406,0Zm0,0"
            transform="translate(-147.232 -227.192)"/>
    </g>
  </g>
</svg>
