<svg xmlns="http://www.w3.org/2000/svg" xmlns:xlink="http://www.w3.org/1999/xlink" width="20.016" height="20.661" viewBox="0 0 20.016 20.661"><defs><style>.a{fill:#fff;}.b{clip-path:url(#a);}</style><clipPath id="a"><rect width="20" height="20" transform="translate(0 0)"/></clipPath></defs><g transform="translate(0 0)"><g transform="translate(0.016 0)"><g transform="translate(0 0)"><path d="M231.859,354.159a.932.932,0,0,0-1.312,0,.918.918,0,0,0,0,1.3l2.745,2.727H221.928a.922.922,0,1,0,0,1.843h11.364l-2.745,2.727a.917.917,0,0,0,0,1.3.932.932,0,0,0,1.312,0l4.328-4.3a.917.917,0,0,0,0-1.3Zm0,0" transform="translate(-217.313 -348.436)"/></g></g><path d="M181.588,310.174a.923.923,0,0,0,0-1.844h-6.812v-16.6h6.812a.923.923,0,0,0,0-1.844h-7.7a.906.906,0,0,0-.888.922v18.44a.905.905,0,0,0,.888.922Zm0,0" transform="translate(-173 -289.513)"/></g></svg>