<svg xmlns="http://www.w3.org/2000/svg" xmlns:xlink="http://www.w3.org/1999/xlink" width="19" height="20.472" viewBox="0 0 19 20.472"><defs><style>.a{fill:#fff;}.b{clip-path:url(#a);}</style><clipPath id="a"><rect class="a" width="19" height="20" transform="translate(0 -0.396)"/></clipPath></defs><g transform="translate(-173 -289.494)"><g transform="translate(173 289.89)"><g class="b" transform="translate(0)"><path class="a" d="M231.683,354.154a.917.917,0,0,0-1.291,0,.9.9,0,0,0,0,1.282l2.7,2.683H221.913a.907.907,0,1,0,0,1.813h11.181l-2.7,2.683a.9.9,0,0,0,0,1.282.917.917,0,0,0,1.291,0l4.258-4.231a.9.9,0,0,0,0-1.282Zm0,0" transform="translate(-217.35 -349.054)"/></g></g><path class="a" d="M185.071,309.966c.69,0,1.249-.408,1.249-.913s-.559-.913-1.249-.913h-10.1V291.715h10.1c.69,0,1.249-.408,1.249-.913s-.559-.913-1.249-.913H174.249c-.69,0-1.249.408-1.249.913v18.251c0,.5.559.913,1.249.913Zm0,0"/></g></svg>