<svg xmlns="http://www.w3.org/2000/svg" width="13.644" height="18.831" viewBox="0 0 13.644 18.831"><defs><style>.a{fill:#fff;}</style></defs><path class="a" d="M-2259.693-641.071a4,4,0,0,0,4-4,4,4,0,0,0-4-4,4,4,0,0,0-4,4,4,4,0,0,0,4,4Z" transform="translate(2266.515 649.074)"/><path class="a" d="M-2273.739-594.6h-3.4a5.131,5.131,0,0,0-5.125,5.125v4.154l.012.065.286.09a23.339,23.339,0,0,0,6.967,1.122,14.284,14.284,0,0,0,6.084-1.143l.266-.134h.029v-4.154a5.13,5.13,0,0,0-5.123-5.125Z" transform="translate(2282.259 602.875)"/><path class="a" d="M-2220.063-590.877" transform="translate(2229.512 599.718)"/></svg>