<svg xmlns="http://www.w3.org/2000/svg" width="19.903" height="21.373" viewBox="0 0 19.903 21.373"><defs><style>.a{fill:#ffffff;}</style></defs><path class="a" d="M366.906,455.639a4.175,4.175,0,0,0,7.643,0Zm0,0" transform="translate(-360.776 -436.759)"/><path class="a" d="M286.972,182.765H268.581a.748.748,0,0,1-.739-.567.7.7,0,0,1,.394-.8,3.861,3.861,0,0,0,1.188-1.592,18.168,18.168,0,0,0,1.238-7.28,7.116,7.116,0,0,1,14.23-.028c0,.009,0,.019,0,.028a18.167,18.167,0,0,0,1.238,7.28,3.861,3.861,0,0,0,1.188,1.592.7.7,0,0,1,.394.8.748.748,0,0,1-.739.567Zm.354-1.364h0Zm0,0" transform="translate(-267.825 -165.507)"/></svg>