<svg xmlns="http://www.w3.org/2000/svg" width="110.73" height="25.115" viewBox="0 0 110.73 25.115"><defs><style>.a{fill:#fff;}.b{fill:#ed3024;}</style></defs><g transform="translate(0 6.117)"><g transform="translate(0 1.314)"><path class="a" d="M1574.758,2652.913a7.12,7.12,0,0,1,1.874-4.966,6.435,6.435,0,0,1,9.436,0,7.521,7.521,0,0,1,.012,9.9,6.494,6.494,0,0,1-9.459.011A7.064,7.064,0,0,1,1574.758,2652.913Zm2.346-.144a5.216,5.216,0,0,0,1.226,3.432,3.955,3.955,0,0,0,6.116.065,5.325,5.325,0,0,0,1.162-3.5,4.906,4.906,0,0,0-1.162-3.32,3.887,3.887,0,0,0-3.1-1.348,3.846,3.846,0,0,0-3.092,1.358A4.949,4.949,0,0,0,1577.1,2652.769Z" transform="translate(-1574.575 -2645.704)"/><path class="a" d="M1581.308,2660.028a6.334,6.334,0,0,1-4.869-2.1,7.683,7.683,0,0,1,.01-10.154,6.614,6.614,0,0,1,9.707,0,7.7,7.7,0,0,1,.01,10.142,6.283,6.283,0,0,1-4.859,2.109Zm0-14.007a5.962,5.962,0,0,0-4.588,2,7.32,7.32,0,0,0-.012,9.661,6.311,6.311,0,0,0,9.188-.01,7.339,7.339,0,0,0-.011-9.652,5.931,5.931,0,0,0-4.577-2Zm0,11.794a3.978,3.978,0,0,1-3.166-1.546,5.413,5.413,0,0,1-1.269-3.548,5.148,5.148,0,0,1,1.194-3.427,4.034,4.034,0,0,1,3.23-1.424,4.086,4.086,0,0,1,3.24,1.411,5.116,5.116,0,0,1,1.206,3.44,5.526,5.526,0,0,1-1.2,3.612,3.988,3.988,0,0,1-3.232,1.482Zm-.011-9.579a3.685,3.685,0,0,0-2.952,1.294,4.794,4.794,0,0,0-1.107,3.191,5.053,5.053,0,0,0,1.186,3.314,3.769,3.769,0,0,0,5.833.066,5.165,5.165,0,0,0,1.12-3.38,4.756,4.756,0,0,0-1.117-3.2,3.731,3.731,0,0,0-2.963-1.284Z" transform="translate(-1574.528 -2645.656)"/></g><g transform="translate(14.378 6.027)"><path class="a" d="M1595,2652.9a3.405,3.405,0,0,1,2.74-1.075,3.54,3.54,0,0,1,2.84,1.359,4.859,4.859,0,0,1,1.129,3.2,5.013,5.013,0,0,1-1.118,3.332,3.594,3.594,0,0,1-2.894,1.337,2.977,2.977,0,0,1-2.652-1.1l-.044,4.471h-2.126V2652.11H1595Zm4.537,3.528a3.085,3.085,0,0,0-.635-1.94,2.226,2.226,0,0,0-3.464.011,3,3,0,0,0,.044,3.858,2.188,2.188,0,0,0,3.42.066A3.081,3.081,0,0,0,1599.539,2656.428Z" transform="translate(-1592.692 -2651.642)"/><path class="a" d="M1595.134,2664.564h-2.49V2651.88h2.492v.531a3.8,3.8,0,0,1,2.557-.817,3.729,3.729,0,0,1,2.979,1.427,5.052,5.052,0,0,1,1.172,3.316,5.214,5.214,0,0,1-1.162,3.449,3.783,3.783,0,0,1-3.033,1.4,3.491,3.491,0,0,1-2.475-.791l-.041,4.166Zm-2.124-.367h1.762l.048-4.874.329.483a2.816,2.816,0,0,0,2.5,1.016,3.4,3.4,0,0,0,2.754-1.271,4.864,4.864,0,0,0,1.075-3.215,4.7,4.7,0,0,0-1.086-3.083,3.336,3.336,0,0,0-2.7-1.293,3.247,3.247,0,0,0-2.6,1.01l-.322.375v-1.1h-1.76V2664.2Zm4.092-4.851a2.323,2.323,0,0,1-1.806-.919,3.11,3.11,0,0,1-.766-2.058,3.145,3.145,0,0,1,.719-2.034,2.3,2.3,0,0,1,1.852-.9,2.275,2.275,0,0,1,1.9.893,3.541,3.541,0,0,1,0,4.161,2.313,2.313,0,0,1-1.9.857Zm0-5.544a1.923,1.923,0,0,0-1.568.765,2.781,2.781,0,0,0-.638,1.8,2.752,2.752,0,0,0,.68,1.821,2.006,2.006,0,0,0,3.137.069,3.176,3.176,0,0,0,0-3.707,1.9,1.9,0,0,0-1.608-.75Z" transform="translate(-1592.644 -2651.594)"/></g><g transform="translate(23.804 3.375)"><path class="a" d="M1607.908,2660.079h-2.126v-6.752h-1.029v-1.732h1.029v-3.113h2.126v3.113h1.688v1.732h-1.688Z" transform="translate(-1604.569 -2648.3)"/><path class="a" d="M1608.043,2660.214h-2.492v-6.751h-1.03v-2.1h1.03v-3.112h2.492v3.112h1.687v2.1h-1.687v6.751Zm-2.127-.365h1.761V2653.1h1.688v-1.366h-1.688v-3.112h-1.761v3.112h-1.031v1.366h1.031v6.752Z" transform="translate(-1604.521 -2648.253)"/></g><g transform="translate(29.306 1.424)"><path class="a" d="M1614.182,2647.274a1.275,1.275,0,1,1-.373-.876A1.2,1.2,0,0,1,1614.182,2647.274Zm-.175,12.3h-2.127v-8.659h2.127Z" transform="translate(-1611.501 -2645.842)"/><path class="a" d="M1614.141,2659.706h-2.491v-9.023h2.491v9.023Zm-2.126-.365h1.761v-8.293h-1.761v8.293Zm.87-10.682a1.453,1.453,0,1,1,1.006-.426,1.389,1.389,0,0,1-1.006.426Zm0-2.5a1.091,1.091,0,1,0,.748.319,1.013,1.013,0,0,0-.748-.319Z" transform="translate(-1611.453 -2645.794)"/></g><g transform="translate(32.468 6.313)"><path class="a" d="M1616.632,2652.184h2.631l1.8,2.433,1.533-2.433h2.7l-3.025,3.924,3.595,4.735h-2.675l-2.367-3.244-2.192,3.244h-2.717l3.682-4.714Z" transform="translate(-1615.535 -2652.001)"/><path class="a" d="M1626.131,2660.977H1623l-2.268-3.109-2.1,3.109h-3.189l3.827-4.9-3.094-4.125h3.087l1.694,2.292,1.446-2.292h3.168l-3.167,4.107,3.733,4.916Zm-2.95-.365h2.214l-3.457-4.552,2.883-3.74H1622.6l-1.624,2.574-1.9-2.574H1616.9l2.824,3.765-3.539,4.528h2.247l2.283-3.379,2.466,3.379Z" transform="translate(-1615.437 -2651.954)"/></g><g transform="translate(42.85 1.314)"><path class="a" d="M1635.777,2648.934a2.57,2.57,0,0,0-2.171-1.206,2.038,2.038,0,0,0-1.4.5,1.711,1.711,0,0,0-.571,1.348q0,.844,2.072,2.006t2.093,1.161a3.182,3.182,0,0,1,1.469,2.587,4.656,4.656,0,0,1-1.172,3.3,4.178,4.178,0,0,1-3.213,1.26,4.543,4.543,0,0,1-4.076-2.586l1.424-1.4a3.353,3.353,0,0,0,1.052,1.4,2.454,2.454,0,0,0,1.578.636,1.893,1.893,0,0,0,1.524-.658,2.388,2.388,0,0,0,.559-1.6,1.841,1.841,0,0,0-.417-1.194,9.632,9.632,0,0,0-2.815-1.579q-2.4-1.063-2.4-3.037a3.941,3.941,0,0,1,1.105-2.839,3.693,3.693,0,0,1,2.774-1.15,4.641,4.641,0,0,1,3.638,1.49Z" transform="translate(-1628.578 -2645.704)"/><path class="a" d="M1632.823,2660.028a4.732,4.732,0,0,1-4.234-2.678l-.071-.122,1.726-1.7.1.265a3.19,3.19,0,0,0,1,1.325,2.284,2.284,0,0,0,1.462.595,1.708,1.708,0,0,0,1.384-.593,2.192,2.192,0,0,0,.516-1.482,1.656,1.656,0,0,0-.376-1.081,9.011,9.011,0,0,0-2.748-1.526c-1.664-.737-2.509-1.815-2.509-3.2a4.133,4.133,0,0,1,1.158-2.965,3.879,3.879,0,0,1,2.9-1.207,4.84,4.84,0,0,1,3.775,1.552l.1.107-1.28,1.892-.152-.215a2.375,2.375,0,0,0-2.021-1.128,1.85,1.85,0,0,0-1.282.458,1.522,1.522,0,0,0-.508,1.211c0,.336.343.929,1.978,1.846,1.507.845,1.937,1.082,2.046,1.138h.019l.048.036a3.363,3.363,0,0,1,1.541,2.733,4.846,4.846,0,0,1-1.221,3.424,4.364,4.364,0,0,1-3.346,1.318Zm-3.846-2.739a4.3,4.3,0,0,0,3.846,2.374,4.023,4.023,0,0,0,3.079-1.2,4.5,4.5,0,0,0,1.123-3.176,2.984,2.984,0,0,0-1.393-2.438c-.16-.076-.61-.328-2.076-1.15s-2.164-1.525-2.164-2.165a1.894,1.894,0,0,1,.632-1.486,2.227,2.227,0,0,1,1.523-.55,2.691,2.691,0,0,1,2.162,1.075l.828-1.225a4.515,4.515,0,0,0-3.406-1.326,3.519,3.519,0,0,0-2.64,1.095,3.776,3.776,0,0,0-1.058,2.712c0,1.247.75,2.186,2.293,2.868a9.577,9.577,0,0,1,2.885,1.632,2.032,2.032,0,0,1,.456,1.31,2.578,2.578,0,0,1-.6,1.718,2.079,2.079,0,0,1-1.663.721,2.638,2.638,0,0,1-1.694-.678,3.7,3.7,0,0,1-1-1.225l-1.132,1.114Z" transform="translate(-1628.518 -2645.656)"/></g><g transform="translate(52.037 6.027)"><path class="a" d="M1649.42,2656.428a4.6,4.6,0,0,1-1.25,3.333,4.348,4.348,0,0,1-3.277,1.293,4.419,4.419,0,0,1-3.3-1.293,5,5,0,0,1-.022-6.641,4.359,4.359,0,0,1,3.287-1.294,4.428,4.428,0,0,1,3.3,1.281A4.541,4.541,0,0,1,1649.42,2656.428Zm-6.949.033a2.88,2.88,0,0,0,.68,1.984,2.238,2.238,0,0,0,1.754.767,2.082,2.082,0,0,0,1.722-.822,3.073,3.073,0,0,0,.646-1.951,3.028,3.028,0,0,0-.659-1.952,2.1,2.1,0,0,0-1.72-.821,2.2,2.2,0,0,0-1.743.789A2.965,2.965,0,0,0,1642.471,2656.461Z" transform="translate(-1640.141 -2651.642)"/><path class="a" d="M1644.845,2661.188a4.617,4.617,0,0,1-3.428-1.349,5.186,5.186,0,0,1-.023-6.9,4.557,4.557,0,0,1,3.418-1.35,4.619,4.619,0,0,1,3.43,1.337,4.735,4.735,0,0,1,1.314,3.449,4.8,4.8,0,0,1-1.3,3.459,4.546,4.546,0,0,1-3.409,1.349Zm-.033-9.228a4.2,4.2,0,0,0-3.156,1.238,4.823,4.823,0,0,0,.02,6.386,4.263,4.263,0,0,0,3.169,1.238,4.191,4.191,0,0,0,3.146-1.237,4.44,4.44,0,0,0,1.2-3.206,4.381,4.381,0,0,0-1.209-3.193,4.263,4.263,0,0,0-3.169-1.227Zm.044,7.386a2.419,2.419,0,0,1-1.891-.829,3.066,3.066,0,0,1-.726-2.1,3.149,3.149,0,0,1,.725-2.124,2.374,2.374,0,0,1,1.881-.854,2.277,2.277,0,0,1,1.863.891,3.209,3.209,0,0,1,.7,2.065,3.252,3.252,0,0,1-.685,2.064,2.262,2.262,0,0,1-1.864.891Zm-.011-5.544a2,2,0,0,0-1.6.724,2.8,2.8,0,0,0-.635,1.887,2.714,2.714,0,0,0,.633,1.863,2.038,2.038,0,0,0,1.617.7,1.89,1.89,0,0,0,1.578-.751,3.064,3.064,0,0,0-.01-3.675,1.908,1.908,0,0,0-1.579-.752Z" transform="translate(-1640.093 -2651.594)"/></g><g transform="translate(62.471)"><path class="a" d="M1655.594,2659.2h-2.126V2644.23h2.126Z" transform="translate(-1653.287 -2644.047)"/><path class="a" d="M1655.73,2659.336h-2.49V2644h2.49v15.336Zm-2.126-.365h1.761v-14.606H1653.6v14.606Z" transform="translate(-1653.24 -2644)"/></g><g transform="translate(66.46 6.313)"><path class="a" d="M1660.621,2652.184v4.69q0,2.521,1.753,2.521t1.755-2.521v-4.69h2.126v5.085q0,3.858-3.881,3.858t-3.879-3.858v-5.085Z" transform="translate(-1658.314 -2652.001)"/><path class="a" d="M1662.327,2661.263c-2.7,0-4.061-1.361-4.061-4.041v-5.268h2.491v4.873c0,1.574.513,2.338,1.57,2.338s1.572-.765,1.572-2.338v-4.873h2.491v5.268c0,2.681-1.367,4.041-4.063,4.041Zm-3.7-8.944v4.9c0,2.472,1.211,3.675,3.7,3.675s3.7-1.2,3.7-3.675v-4.9h-1.761v4.508c0,1.794-.651,2.7-1.936,2.7s-1.936-.911-1.936-2.7v-4.508Z" transform="translate(-1658.266 -2651.954)"/></g><g transform="translate(75.402 3.375)"><path class="a" d="M1672.92,2660.079h-2.126v-6.752h-1.03v-1.732h1.03v-3.113h2.126v3.113h1.687v1.732h-1.687Z" transform="translate(-1669.581 -2648.3)"/><path class="a" d="M1673.055,2660.214h-2.49v-6.751h-1.032v-2.1h1.032v-3.112h2.49v3.112h1.688v2.1h-1.688v6.751Zm-2.126-.365h1.761V2653.1h1.688v-1.366h-1.688v-3.112h-1.761v3.112H1669.9v1.366h1.029v6.752Z" transform="translate(-1669.533 -2648.253)"/></g><g transform="translate(80.904 1.424)"><path class="a" d="M1679.195,2647.274a1.273,1.273,0,1,1-.372-.876A1.2,1.2,0,0,1,1679.195,2647.274Zm-.176,12.3h-2.126v-8.659h2.126Z" transform="translate(-1676.513 -2645.842)"/><path class="a" d="M1679.155,2659.706h-2.492v-9.023h2.492v9.023Zm-2.126-.365h1.76v-8.293h-1.76v8.293Zm.868-10.682a1.454,1.454,0,1,1,1.007-.426,1.386,1.386,0,0,1-1.007.426Zm0-2.5a1.091,1.091,0,1,0,.748.319,1.012,1.012,0,0,0-.748-.319Z" transform="translate(-1676.466 -2645.794)"/></g><g transform="translate(84.674 6.027)"><path class="a" d="M1690.543,2656.428a4.6,4.6,0,0,1-1.25,3.333,4.345,4.345,0,0,1-3.277,1.293,4.421,4.421,0,0,1-3.3-1.293,4.537,4.537,0,0,1-1.271-3.321,4.584,4.584,0,0,1,1.25-3.321,4.362,4.362,0,0,1,3.288-1.294,4.426,4.426,0,0,1,3.3,1.281A4.54,4.54,0,0,1,1690.543,2656.428Zm-6.948.033a2.884,2.884,0,0,0,.679,1.984,2.24,2.24,0,0,0,1.756.767,2.079,2.079,0,0,0,1.72-.822,3.064,3.064,0,0,0,.646-1.951,3.026,3.026,0,0,0-.657-1.952,2.1,2.1,0,0,0-1.721-.821,2.2,2.2,0,0,0-1.743.789A2.969,2.969,0,0,0,1683.594,2656.461Z" transform="translate(-1681.263 -2651.642)"/><path class="a" d="M1685.969,2661.188a4.616,4.616,0,0,1-3.429-1.349,4.727,4.727,0,0,1-1.324-3.448,4.776,4.776,0,0,1,1.3-3.448,4.558,4.558,0,0,1,3.42-1.35,4.616,4.616,0,0,1,3.429,1.337,4.735,4.735,0,0,1,1.313,3.449,4.8,4.8,0,0,1-1.3,3.459,4.546,4.546,0,0,1-3.409,1.349Zm-.032-9.228a4.2,4.2,0,0,0-3.157,1.238,4.822,4.822,0,0,0,.021,6.386,4.263,4.263,0,0,0,3.168,1.238,4.193,4.193,0,0,0,3.146-1.237,4.441,4.441,0,0,0,1.2-3.206,4.382,4.382,0,0,0-1.209-3.193,4.261,4.261,0,0,0-3.168-1.227Zm.045,7.386a2.425,2.425,0,0,1-1.893-.829,3.072,3.072,0,0,1-.722-2.1,3.148,3.148,0,0,1,.722-2.124,2.372,2.372,0,0,1,1.88-.854,2.284,2.284,0,0,1,1.864.891,3.422,3.422,0,0,1,.011,4.129,2.262,2.262,0,0,1-1.863.891Zm-.013-5.544a2,2,0,0,0-1.6.724,2.811,2.811,0,0,0-.635,1.887,2.718,2.718,0,0,0,.633,1.863,2.041,2.041,0,0,0,1.618.7,1.888,1.888,0,0,0,1.576-.75,2.9,2.9,0,0,0,.607-1.838,2.873,2.873,0,0,0-.617-1.837,1.912,1.912,0,0,0-1.579-.752Z" transform="translate(-1681.216 -2651.594)"/></g><g transform="translate(94.933 6.027)"><path class="a" d="M1696.5,2652.9a3.258,3.258,0,0,1,2.653-1.075q2.981,0,2.98,3.66v5.283h-2.1v-4.582q0-2.739-1.688-2.74-1.84,0-1.842,2.937v4.385h-2.125v-8.659h2.125Z" transform="translate(-1694.189 -2651.642)"/><path class="a" d="M1702.266,2660.9h-2.47v-4.764c0-1.721-.492-2.557-1.5-2.557-1.117,0-1.659.9-1.659,2.754v4.566h-2.492v-9.023h2.492v.524a3.62,3.62,0,0,1,2.47-.811c2.1,0,3.164,1.294,3.164,3.844v5.465Zm-2.1-.365h1.74v-5.1c0-2.339-.916-3.477-2.8-3.477a3.1,3.1,0,0,0-2.512,1.008l-.324.385v-1.109h-1.76v8.293h1.76v-4.2c0-2.07.682-3.121,2.025-3.121,1.241,0,1.87.984,1.87,2.923v4.4Z" transform="translate(-1694.141 -2651.594)"/></g><g transform="translate(103.889 6.027)"><path class="a" d="M1710.874,2653.908a2.13,2.13,0,0,0-1.468-.658q-1.163,0-1.163,1.052c0,.394.351.717,1.052.964a5.934,5.934,0,0,1,2.389,1.282,2.238,2.238,0,0,1,.462,1.436,2.793,2.793,0,0,1-.976,2.236,3.566,3.566,0,0,1-2.4.833,3.8,3.8,0,0,1-3.047-1.446l.942-1.206a3.044,3.044,0,0,0,2.017,1.1,1.163,1.163,0,0,0,1.337-1.293,1.033,1.033,0,0,0-.7-.975c-.467-.211-.826-.369-1.074-.471q-2.018-.876-2.017-2.127a2.785,2.785,0,0,1,.757-2.026,2.643,2.643,0,0,1,1.984-.778,4.089,4.089,0,0,1,2.783.9Z" transform="translate(-1705.487 -2651.642)"/><path class="a" d="M1708.709,2661.188a3.99,3.99,0,0,1-3.187-1.513l-.1-.113,1.162-1.485.146.146a2.893,2.893,0,0,0,1.887,1.043c.787,0,1.154-.354,1.154-1.111a.86.86,0,0,0-.593-.81c-.465-.209-.824-.368-1.069-.468-1.414-.614-2.13-1.387-2.13-2.3a2.977,2.977,0,0,1,.807-2.154,2.835,2.835,0,0,1,2.116-.834,4.284,4.284,0,0,1,2.9.944l.128.111-1.1,1.484-.15-.14a1.966,1.966,0,0,0-1.342-.608c-.678,0-.98.268-.98.87,0,.306.314.574.93.792a6.007,6.007,0,0,1,2.471,1.341,2.418,2.418,0,0,1,.5,1.548,2.978,2.978,0,0,1-1.04,2.375,3.758,3.758,0,0,1-2.518.877Zm-2.81-1.635a3.569,3.569,0,0,0,2.81,1.269,3.4,3.4,0,0,0,2.282-.789,2.6,2.6,0,0,0,.911-2.1,2.057,2.057,0,0,0-.422-1.321,5.834,5.834,0,0,0-2.307-1.225c-.778-.275-1.173-.657-1.173-1.135,0-.563.234-1.236,1.346-1.236a2.231,2.231,0,0,1,1.439.572l.656-.884a4.032,4.032,0,0,0-2.533-.747,2.447,2.447,0,0,0-1.853.723,2.579,2.579,0,0,0-.7,1.9c0,.75.641,1.41,1.906,1.959.245.1.609.26,1.077.472a1.208,1.208,0,0,1,.808,1.143,1.339,1.339,0,0,1-1.52,1.475,3.06,3.06,0,0,1-2-1.005l-.725.928Z" transform="translate(-1705.426 -2651.594)"/></g></g><g transform="translate(0.553)"><path class="b" d="M1575.225,2640.307s16.643-3.51,19.362-.608c1.828,1.948-2.679,6.7-2.679,6.7s9.011-6.09,7.185-9.135S1577.832,2639.211,1575.225,2640.307Z" transform="translate(-1575.225 -2636.292)"/></g><g transform="translate(4.822 3.618)"><path class="b" d="M1580.6,2643.221s9.822-2.072,11.428-.359c1.079,1.149-1.581,3.953-1.581,3.953s5.318-3.593,4.24-5.391S1582.142,2642.574,1580.6,2643.221Z" transform="translate(-1580.603 -2640.851)"/></g></svg>