<svg xmlns="http://www.w3.org/2000/svg" width="164.135" height="37.227" viewBox="0 0 164.135 37.227"><defs><style>.a{fill:#2c2c2c;}.b{fill:#ed3024;}</style></defs><g transform="translate(0 9.067)"><g transform="translate(0 1.948)"><path class="a" d="M174.265,545.277a10.556,10.556,0,0,1,2.778-7.361,9.534,9.534,0,0,1,13.986,0,11.149,11.149,0,0,1,.019,14.671,9.626,9.626,0,0,1-14.021.015A10.469,10.469,0,0,1,174.265,545.277Zm3.477-.212a7.734,7.734,0,0,0,1.817,5.087,5.864,5.864,0,0,0,9.066.1,7.891,7.891,0,0,0,1.722-5.183,7.277,7.277,0,0,0-1.722-4.922,5.768,5.768,0,0,0-4.6-2,5.7,5.7,0,0,0-4.582,2.014A7.334,7.334,0,0,0,177.742,545.065Z" transform="translate(-173.994 -534.591)"/><path class="a" d="M183.907,555.758a9.388,9.388,0,0,1-7.217-3.109A11.387,11.387,0,0,1,176.7,537.6a9.8,9.8,0,0,1,14.39,0,11.415,11.415,0,0,1,.016,15.033,9.315,9.315,0,0,1-7.2,3.127Zm0-20.761a8.835,8.835,0,0,0-6.8,2.966,10.85,10.85,0,0,0-.017,14.321,9.353,9.353,0,0,0,13.62-.015,10.877,10.877,0,0,0-.017-14.307A8.788,8.788,0,0,0,183.907,535Zm0,17.48a5.9,5.9,0,0,1-4.693-2.291,8.031,8.031,0,0,1-1.882-5.259,7.632,7.632,0,0,1,1.77-5.081,5.982,5.982,0,0,1,4.789-2.111,6.054,6.054,0,0,1,4.8,2.092,7.578,7.578,0,0,1,1.788,5.1,8.2,8.2,0,0,1-1.784,5.354,5.913,5.913,0,0,1-4.791,2.2Zm-.016-14.2a5.461,5.461,0,0,0-4.375,1.918,7.107,7.107,0,0,0-1.642,4.73,7.5,7.5,0,0,0,1.757,4.913,5.591,5.591,0,0,0,8.647.1,7.662,7.662,0,0,0,1.661-5.01,7.042,7.042,0,0,0-1.657-4.744,5.529,5.529,0,0,0-4.392-1.9Z" transform="translate(-173.856 -534.453)"/></g><g transform="translate(21.313 8.934)"><path class="a" d="M209.565,546.993a5.05,5.05,0,0,1,4.061-1.593,5.245,5.245,0,0,1,4.209,2.015,7.2,7.2,0,0,1,1.673,4.744,7.437,7.437,0,0,1-1.657,4.939,5.332,5.332,0,0,1-4.289,1.982q-2.827,0-3.932-1.625l-.064,6.629h-3.152v-18.26h3.152Zm6.725,5.23a4.572,4.572,0,0,0-.941-2.875,3.3,3.3,0,0,0-5.133.016,4.451,4.451,0,0,0,.064,5.719,3.243,3.243,0,0,0,5.069.1A4.567,4.567,0,0,0,216.29,552.223Z" transform="translate(-206.141 -545.129)"/><path class="a" d="M209.695,564.216H206v-18.8H209.7v.787a5.635,5.635,0,0,1,3.79-1.211A5.528,5.528,0,0,1,217.9,547.1a7.489,7.489,0,0,1,1.736,4.916,7.733,7.733,0,0,1-1.722,5.112,5.608,5.608,0,0,1-4.5,2.079,5.171,5.171,0,0,1-3.668-1.172l-.06,6.175Zm-3.149-.542h2.612l.071-7.225.487.717c.679,1,1.925,1.506,3.707,1.506a5.034,5.034,0,0,0,4.082-1.884,7.21,7.21,0,0,0,1.593-4.766,6.96,6.96,0,0,0-1.611-4.57,4.942,4.942,0,0,0-4-1.917,4.816,4.816,0,0,0-3.855,1.5l-.477.555v-1.63h-2.61v17.718Zm6.066-7.191a3.444,3.444,0,0,1-2.676-1.362,4.609,4.609,0,0,1-1.136-3.05,4.662,4.662,0,0,1,1.067-3.015,3.414,3.414,0,0,1,2.746-1.334,3.373,3.373,0,0,1,2.812,1.323,5.248,5.248,0,0,1,0,6.168,3.426,3.426,0,0,1-2.81,1.27Zm0-8.219a2.854,2.854,0,0,0-2.325,1.134,4.182,4.182,0,0,0,.062,5.372,2.974,2.974,0,0,0,4.651.1,4.707,4.707,0,0,0,0-5.5,2.817,2.817,0,0,0-2.383-1.113Z" transform="translate(-206.003 -544.991)"/></g><g transform="translate(35.286 5.003)"><path class="a" d="M232.165,556.659h-3.151V546.65h-1.526v-2.567h1.526v-4.614h3.151v4.614h2.5v2.567h-2.5Z" transform="translate(-227.217 -539.199)"/><path class="a" d="M232.3,556.791h-3.694V546.784h-1.527v-3.109h1.527v-4.615H232.3v4.615h2.5v3.109h-2.5v10.007Zm-3.153-.541h2.61V546.242h2.5v-2.025h-2.5V539.6h-2.61v4.614h-1.528v2.025h1.528V556.25Z" transform="translate(-227.079 -539.061)"/></g><g transform="translate(43.441 2.111)"><path class="a" d="M243.491,536.96a1.888,1.888,0,1,1-.552-1.3A1.78,1.78,0,0,1,243.491,536.96Zm-.261,18.23h-3.152V542.354h3.152Z" transform="translate(-239.516 -534.837)"/><path class="a" d="M243.364,555.321h-3.694V541.946h3.694v13.376Zm-3.152-.541h2.61V542.487h-2.61V554.78Zm1.289-15.835a2.154,2.154,0,1,1,1.491-.632,2.055,2.055,0,0,1-1.491.632Zm0-3.7a1.616,1.616,0,1,0,1.108.473,1.5,1.5,0,0,0-1.108-.473Z" transform="translate(-239.379 -534.699)"/></g><g transform="translate(48.128 9.357)"><path class="a" d="M248.357,546.037h3.9l2.664,3.607,2.273-3.607h4l-4.484,5.817,5.329,7.019h-3.964l-3.51-4.809-3.249,4.809h-4.029l5.458-6.987Z" transform="translate(-246.731 -545.766)"/><path class="a" d="M262.3,559h-4.648L254.29,554.4,251.176,559h-4.727l5.672-7.26-4.587-6.116h4.577l2.51,3.4,2.143-3.4h4.7l-4.695,6.088L262.3,559Zm-4.372-.541h3.282l-5.126-6.749,4.275-5.544h-3.3l-2.406,3.815-2.82-3.815h-3.22l4.187,5.58-5.246,6.713h3.33l3.386-5.01,3.654,5.01Z" transform="translate(-246.449 -545.629)"/></g><g transform="translate(63.517 1.948)"><path class="a" d="M280.5,539.38a3.808,3.808,0,0,0-3.217-1.787,3.024,3.024,0,0,0-2.078.747,2.535,2.535,0,0,0-.846,2q0,1.252,3.072,2.973t3.1,1.721a4.715,4.715,0,0,1,2.177,3.834,6.9,6.9,0,0,1-1.738,4.889,6.186,6.186,0,0,1-4.762,1.869q-3.832,0-6.042-3.834l2.111-2.08a4.972,4.972,0,0,0,1.56,2.08,3.645,3.645,0,0,0,2.339.942,2.807,2.807,0,0,0,2.258-.975,3.538,3.538,0,0,0,.829-2.371,2.733,2.733,0,0,0-.618-1.771q-.615-.763-4.174-2.34t-3.558-4.5a5.837,5.837,0,0,1,1.64-4.208,5.472,5.472,0,0,1,4.111-1.706,6.88,6.88,0,0,1,5.393,2.21Z" transform="translate(-269.833 -534.591)"/><path class="a" d="M276.041,555.758c-2.647,0-4.76-1.335-6.277-3.969l-.1-.182,2.558-2.521.146.393a4.723,4.723,0,0,0,1.478,1.964,3.385,3.385,0,0,0,2.167.881,2.532,2.532,0,0,0,2.051-.879,3.249,3.249,0,0,0,.765-2.2,2.456,2.456,0,0,0-.558-1.6c-.262-.323-1.182-.98-4.073-2.262-2.468-1.093-3.719-2.69-3.719-4.747a6.124,6.124,0,0,1,1.716-4.4,5.754,5.754,0,0,1,4.306-1.79,7.169,7.169,0,0,1,5.594,2.3l.142.157-1.9,2.806-.226-.318a3.521,3.521,0,0,0-3-1.672,2.741,2.741,0,0,0-1.9.679,2.258,2.258,0,0,0-.753,1.8c0,.5.509,1.378,2.932,2.736,2.234,1.254,2.871,1.6,3.032,1.687h.028l.072.054a4.986,4.986,0,0,1,2.285,4.052A7.189,7.189,0,0,1,281,553.8a6.474,6.474,0,0,1-4.96,1.954Zm-5.7-4.059a6.368,6.368,0,0,0,5.7,3.519,5.96,5.96,0,0,0,4.564-1.782,6.671,6.671,0,0,0,1.665-4.706,4.424,4.424,0,0,0-2.064-3.615c-.237-.113-.9-.485-3.078-1.7s-3.21-2.261-3.21-3.21a2.806,2.806,0,0,1,.937-2.2,3.3,3.3,0,0,1,2.258-.815,3.986,3.986,0,0,1,3.2,1.594l1.229-1.816A6.7,6.7,0,0,0,276.5,535a5.219,5.219,0,0,0-3.914,1.622,5.6,5.6,0,0,0-1.567,4.02c0,1.848,1.112,3.24,3.4,4.251,2.435,1.079,3.833,1.87,4.276,2.419a3.01,3.01,0,0,1,.678,1.941,3.82,3.82,0,0,1-.893,2.547,3.078,3.078,0,0,1-2.465,1.069,3.915,3.915,0,0,1-2.513-1,5.493,5.493,0,0,1-1.478-1.816L270.34,551.7Z" transform="translate(-269.66 -534.453)"/></g><g transform="translate(77.134 8.934)"><path class="a" d="M304.091,552.223a6.82,6.82,0,0,1-1.853,4.94,6.445,6.445,0,0,1-4.858,1.916,6.555,6.555,0,0,1-4.89-1.916,7.419,7.419,0,0,1-.032-9.845,6.464,6.464,0,0,1,4.872-1.918,6.557,6.557,0,0,1,4.891,1.9A6.727,6.727,0,0,1,304.091,552.223Zm-10.3.05a4.268,4.268,0,0,0,1.008,2.94,3.316,3.316,0,0,0,2.6,1.138,3.086,3.086,0,0,0,2.552-1.219,4.547,4.547,0,0,0,.957-2.891,4.483,4.483,0,0,0-.977-2.893,3.105,3.105,0,0,0-2.549-1.218A3.256,3.256,0,0,0,294.8,549.3,4.4,4.4,0,0,0,293.79,552.273Z" transform="translate(-290.336 -545.129)"/><path class="a" d="M297.243,559.212a6.845,6.845,0,0,1-5.082-2,7.686,7.686,0,0,1-.034-10.223,6.753,6.753,0,0,1,5.067-2,6.849,6.849,0,0,1,5.085,1.982,7.019,7.019,0,0,1,1.946,5.112,7.106,7.106,0,0,1-1.929,5.128,6.738,6.738,0,0,1-5.053,2Zm-.049-13.678a6.229,6.229,0,0,0-4.678,1.834,6.559,6.559,0,0,0-1.775,4.735,6.49,6.49,0,0,0,1.805,4.732,6.322,6.322,0,0,0,4.7,1.836,6.213,6.213,0,0,0,4.664-1.835,6.582,6.582,0,0,0,1.776-4.751,6.5,6.5,0,0,0-1.791-4.733,6.323,6.323,0,0,0-4.7-1.818Zm.066,10.948a3.585,3.585,0,0,1-2.8-1.228,4.548,4.548,0,0,1-1.076-3.12,4.674,4.674,0,0,1,1.073-3.149,3.523,3.523,0,0,1,2.788-1.265A3.38,3.38,0,0,1,300,549.041a4.767,4.767,0,0,1,1.034,3.062,4.816,4.816,0,0,1-1.015,3.057,3.352,3.352,0,0,1-2.764,1.322Zm-.017-8.219a2.969,2.969,0,0,0-2.377,1.074,4.146,4.146,0,0,0-.942,2.8,4.023,4.023,0,0,0,.939,2.761,3.023,3.023,0,0,0,2.4,1.045,2.8,2.8,0,0,0,2.339-1.115,4.54,4.54,0,0,0-.015-5.446,2.829,2.829,0,0,0-2.34-1.116Z" transform="translate(-290.198 -544.991)"/></g><g transform="translate(92.6)"><path class="a" d="M317.085,554.116h-3.153V531.923h3.153Z" transform="translate(-313.664 -531.652)"/><path class="a" d="M317.219,554.248h-3.692V531.515h3.692v22.733Zm-3.152-.541h2.61V532.056h-2.61v21.651Z" transform="translate(-313.527 -531.515)"/></g><g transform="translate(98.514 9.357)"><path class="a" d="M326,546.037v6.954q0,3.737,2.6,3.737t2.6-3.737v-6.954h3.152v7.538q0,5.719-5.753,5.719t-5.751-5.719v-7.538Z" transform="translate(-322.583 -545.766)"/><path class="a" d="M328.466,559.427c-4,0-6.019-2.016-6.019-5.99v-7.808h3.692v7.224c0,2.333.76,3.465,2.327,3.465s2.33-1.132,2.33-3.465v-7.224h3.692v7.808c0,3.974-2.025,5.99-6.023,5.99Zm-5.481-13.256v7.266c0,3.666,1.795,5.448,5.481,5.448s5.481-1.783,5.481-5.448v-7.266h-2.61v6.682c0,2.659-.965,4.008-2.871,4.008s-2.869-1.35-2.869-4.008v-6.682Z" transform="translate(-322.447 -545.629)"/></g><g transform="translate(111.768 5.003)"><path class="a" d="M347.528,556.659h-3.153V546.65h-1.528v-2.567h1.528v-4.614h3.153v4.614h2.5v2.567h-2.5Z" transform="translate(-342.576 -539.199)"/><path class="a" d="M347.658,556.791h-3.691V546.784h-1.53v-3.109h1.53v-4.615h3.691v4.615h2.5v3.109h-2.5v10.007Zm-3.152-.541h2.612V546.242h2.5v-2.025h-2.5V539.6h-2.612v4.614H342.98v2.025h1.526V556.25Z" transform="translate(-342.438 -539.061)"/></g><g transform="translate(119.925 2.111)"><path class="a" d="M358.853,536.96a1.887,1.887,0,1,1-.552-1.3A1.774,1.774,0,0,1,358.853,536.96Zm-.261,18.23H355.44V542.354h3.152Z" transform="translate(-354.877 -534.837)"/><path class="a" d="M358.727,555.321h-3.694V541.946h3.694v13.376Zm-3.152-.541h2.608V542.487h-2.608V554.78Zm1.287-15.835a2.157,2.157,0,1,1,1.493-.632,2.049,2.049,0,0,1-1.493.632Zm0-3.7a1.619,1.619,0,1,0,1.109.473,1.5,1.5,0,0,0-1.109-.473Z" transform="translate(-354.741 -534.699)"/></g><g transform="translate(125.513 8.934)"><path class="a" d="M377.062,552.223a6.82,6.82,0,0,1-1.852,4.94,6.443,6.443,0,0,1-4.858,1.916,6.553,6.553,0,0,1-4.889-1.916,7.418,7.418,0,0,1-.033-9.845A6.468,6.468,0,0,1,370.3,545.4a6.552,6.552,0,0,1,4.889,1.9A6.725,6.725,0,0,1,377.062,552.223Zm-10.3.05a4.276,4.276,0,0,0,1.006,2.94,3.32,3.32,0,0,0,2.6,1.138,3.081,3.081,0,0,0,2.549-1.219,4.816,4.816,0,0,0-.015-5.784,3.114,3.114,0,0,0-2.552-1.218,3.259,3.259,0,0,0-2.584,1.169A4.4,4.4,0,0,0,366.762,552.273Z" transform="translate(-363.308 -545.129)"/><path class="a" d="M370.214,559.212a6.845,6.845,0,0,1-5.082-2,7.69,7.69,0,0,1-.034-10.223,6.757,6.757,0,0,1,5.07-2,6.841,6.841,0,0,1,5.083,1.982,7.019,7.019,0,0,1,1.947,5.112,7.1,7.1,0,0,1-1.929,5.128,6.736,6.736,0,0,1-5.053,2Zm-.047-13.678a6.226,6.226,0,0,0-4.679,1.834,6.563,6.563,0,0,0-1.777,4.735,6.494,6.494,0,0,0,1.807,4.732,6.322,6.322,0,0,0,4.7,1.836,6.216,6.216,0,0,0,4.664-1.835,6.581,6.581,0,0,0,1.775-4.751,6.494,6.494,0,0,0-1.791-4.733,6.317,6.317,0,0,0-4.7-1.818Zm.066,10.948a3.594,3.594,0,0,1-2.805-1.228,4.555,4.555,0,0,1-1.071-3.12,4.669,4.669,0,0,1,1.071-3.149,3.519,3.519,0,0,1,2.786-1.265,3.384,3.384,0,0,1,2.763,1.321,5.07,5.07,0,0,1,.016,6.119,3.351,3.351,0,0,1-2.761,1.322Zm-.019-8.219a2.973,2.973,0,0,0-2.377,1.074,4.162,4.162,0,0,0-.941,2.8,4.031,4.031,0,0,0,.939,2.761,3.027,3.027,0,0,0,2.4,1.045,2.8,2.8,0,0,0,2.337-1.114,4.3,4.3,0,0,0,.9-2.723,4.252,4.252,0,0,0-.914-2.724,2.833,2.833,0,0,0-2.341-1.116Z" transform="translate(-363.17 -544.991)"/></g><g transform="translate(140.718 8.934)"><path class="a" d="M389.664,546.993A4.835,4.835,0,0,1,393.6,545.4q4.419,0,4.417,5.426v7.832H394.9v-6.792q0-4.062-2.5-4.062-2.727,0-2.73,4.354v6.5h-3.15V545.822h3.15Z" transform="translate(-386.242 -545.129)"/><path class="a" d="M398.149,558.79h-3.662v-7.062c0-2.55-.729-3.79-2.23-3.79-1.656,0-2.458,1.336-2.458,4.083v6.769H386.1V545.414H389.8v.778a5.368,5.368,0,0,1,3.661-1.2c3.111,0,4.689,1.918,4.689,5.7v8.1Zm-3.119-.541h2.578v-7.561c0-3.468-1.357-5.154-4.148-5.154a4.6,4.6,0,0,0-3.723,1.494l-.479.571v-1.644h-2.61v12.293h2.61v-6.228c0-3.068,1.01-4.625,3-4.625,1.84,0,2.773,1.458,2.773,4.333v6.521Z" transform="translate(-386.104 -544.991)"/></g><g transform="translate(153.995 8.934)"><path class="a" d="M414.292,548.488a3.159,3.159,0,0,0-2.176-.976q-1.724,0-1.723,1.56c0,.583.52,1.062,1.559,1.429a8.783,8.783,0,0,1,3.541,1.9,3.317,3.317,0,0,1,.684,2.128,4.137,4.137,0,0,1-1.447,3.314,5.285,5.285,0,0,1-3.558,1.235,5.63,5.63,0,0,1-4.516-2.143l1.4-1.788a4.509,4.509,0,0,0,2.989,1.625,1.725,1.725,0,0,0,1.982-1.917,1.531,1.531,0,0,0-1.04-1.445q-1.04-.471-1.592-.7-2.991-1.3-2.991-3.153a4.125,4.125,0,0,1,1.123-3,3.912,3.912,0,0,1,2.941-1.154,6.063,6.063,0,0,1,4.125,1.332Z" transform="translate(-406.307 -545.129)"/><path class="a" d="M410.995,559.212a5.918,5.918,0,0,1-4.725-2.241l-.141-.169,1.723-2.2.216.215a4.284,4.284,0,0,0,2.8,1.546c1.167,0,1.711-.523,1.711-1.647a1.274,1.274,0,0,0-.88-1.2c-.688-.31-1.221-.544-1.583-.694-2.1-.91-3.157-2.055-3.157-3.4a4.409,4.409,0,0,1,1.2-3.193,4.2,4.2,0,0,1,3.137-1.237,6.348,6.348,0,0,1,4.3,1.4l.189.163-1.63,2.2-.222-.208a2.911,2.911,0,0,0-1.99-.9c-1,0-1.453.4-1.453,1.29,0,.454.465.85,1.379,1.174,1.976.719,3.172,1.368,3.663,1.988a3.586,3.586,0,0,1,.741,2.3,4.411,4.411,0,0,1-1.541,3.52,5.57,5.57,0,0,1-3.733,1.3Zm-4.165-2.423a5.287,5.287,0,0,0,4.165,1.882,5.05,5.05,0,0,0,3.383-1.17,3.844,3.844,0,0,0,1.349-3.108,3.06,3.06,0,0,0-.624-1.959,8.659,8.659,0,0,0-3.421-1.815c-1.152-.409-1.738-.975-1.738-1.683,0-.836.347-1.832,1.995-1.832a3.311,3.311,0,0,1,2.134.848l.971-1.31a5.97,5.97,0,0,0-3.755-1.106,3.628,3.628,0,0,0-2.747,1.071,3.825,3.825,0,0,0-1.044,2.816c0,1.112.949,2.088,2.826,2.9.364.151.9.386,1.6.7a1.788,1.788,0,0,1,1.2,1.692,1.984,1.984,0,0,1-2.252,2.187,4.532,4.532,0,0,1-2.961-1.49l-1.075,1.374Z" transform="translate(-406.129 -544.991)"/></g></g><g transform="translate(0.821)"><path class="b" d="M175.094,523.79s24.67-5.2,28.7-.9c2.708,2.889-3.97,9.929-3.97,9.929s13.357-9.026,10.65-13.54S178.959,522.165,175.094,523.79Z" transform="translate(-175.094 -517.839)"/></g><g transform="translate(7.148 5.364)"><path class="b" d="M184.637,529.442s14.56-3.072,16.939-.533c1.6,1.7-2.344,5.859-2.344,5.859s7.884-5.326,6.285-7.991S186.918,528.483,184.637,529.442Z" transform="translate(-184.637 -525.929)"/></g></svg>