<svg xmlns="http://www.w3.org/2000/svg" width="19.038" height="27.045" viewBox="0 0 19.038 27.045"><defs><style>.a{fill:#fff;}</style></defs><path class="a" d="M601.728,6.056a.761.761,0,0,1-.761-.761V0H589.521a1.577,1.577,0,0,0-1.577,1.577v23.89a1.577,1.577,0,0,0,1.577,1.577H605.4a1.577,1.577,0,0,0,1.577-1.577V6.056Zm1.5,16H591.77a1.278,1.278,0,0,1,0-2.557h11.457a1.278,1.278,0,0,1,0,2.557Zm0-5.494H591.77a1.278,1.278,0,0,1,0-2.557h11.457a1.278,1.278,0,0,1,0,2.557Zm1.278-6.571h0a1.278,1.278,0,0,1-1.278,1.278H591.77a1.278,1.278,0,0,1-1.278-1.278h0a1.278,1.278,0,0,1,1.278-1.278h11.457A1.278,1.278,0,0,1,604.505,9.994Z" transform="translate(-587.944)"/></svg>