<svg xmlns="http://www.w3.org/2000/svg" width="20.351" height="21.834" viewBox="0 0 20.351 21.834"><defs><style>.a{fill:#505465;}</style></defs><g transform="translate(-17.379)"><g transform="translate(17.379 3.278)"><path class="a" d="M306.887,175.119l-1.709-.063-.371,10.119,1.709.062Z" transform="translate(-292.55 -170.869)"/><rect class="a" width="1.71" height="10.119" transform="translate(9.321 4.218)"/><path class="a" d="M160.5,185.168l-.371-10.119-1.709.063.371,10.119Z" transform="translate(-152.405 -170.862)"/><path class="a" d="M17.379,76.867v1.71h1.782l1.414,16.065a.855.855,0,0,0,.852.78H33.654a.855.855,0,0,0,.852-.78L35.92,78.577H37.73v-1.71ZM32.871,93.712H22.209L20.878,78.577H34.2Z" transform="translate(-17.379 -76.867)"/></g><g transform="translate(23.336)"><path class="a" d="M164.088,0H158.5a1.427,1.427,0,0,0-1.425,1.425V4.133h1.71V1.71H163.8V4.133h1.71V1.425A1.427,1.427,0,0,0,164.088,0Z" transform="translate(-157.076)"/></g></g></svg>