<svg xmlns="http://www.w3.org/2000/svg" width="17.977" height="23.12" viewBox="0 0 17.977 23.12"><defs><style>.a{fill:#fff;}</style></defs><g transform="translate(-54.637)"><g transform="translate(54.637 0)"><path d="M54.7,12.369a8.824,8.824,0,0,1,8.655-9.841V.156a.17.17,0,0,1,.273-.122L68.5,3.62a.15.15,0,0,1,0,.24L63.629,7.446a.169.169,0,0,1-.273-.122V4.957a6.389,6.389,0,0,0-5.779,3.916,6.311,6.311,0,0,0,.9,6.434,1.218,1.218,0,1,1-1.916,1.506A8.7,8.7,0,0,1,54.7,12.369ZM68.787,7.813a6.311,6.311,0,0,1,.9,6.434,6.382,6.382,0,0,1-5.779,3.916V15.8a.17.17,0,0,0-.273-.122l-4.881,3.586a.15.15,0,0,0,0,.24l4.876,3.586a.169.169,0,0,0,.273-.122V20.591a8.824,8.824,0,0,0,8.655-9.841A8.657,8.657,0,0,0,70.7,6.307a1.217,1.217,0,1,0-1.911,1.506Z" transform="translate(-54.637 0)"/></g></g></svg>