<svg xmlns="http://www.w3.org/2000/svg" width="20.802" height="18.452" viewBox="0 0 20.802 18.452"><defs><style>.a{fill:#43515a;stroke-width:0.5px;}.a,.b{stroke:#43515a;}.b{fill:none;stroke-miterlimit:10;stroke-width:1.5px;}</style></defs><g transform="translate(2876.75 -1070.25)"><g transform="translate(-2876 1071)"><path class="a" d="M690.207,383.433H688.55v6.628h1.657v1.114h-4.431v-1.117h1.654V383.43h-1.654v-1.117h4.431Z" transform="translate(-682.062 -376.686)"/><path class="b" d="M701.2,378.9h-8.849l-1.787-2.5h-6.713a.978.978,0,0,0-.977.977V392.34a1.01,1.01,0,0,0,1,1.006h17.292a1.01,1.01,0,0,0,1-1.006V379.873A.974.974,0,0,0,701.2,378.9Z" transform="translate(-682.87 -376.394)"/></g></g></svg>