<svg xmlns="http://www.w3.org/2000/svg" width="27.492" height="24.549" viewBox="0 0 27.492 24.549"><defs><style>.a,.g{fill:#fff;}.a,.b{stroke:#505465;}.a{stroke-width:1.8px;}.b,.c,.f{fill:none;}.b,.c{stroke-width:2px;}.c{stroke:#43515a;}.d{fill:#505465;}.e,.g{stroke:none;}</style></defs><g transform="translate(-335 -336.451)"><g class="a" transform="translate(335 340)"><rect class="e" width="17" height="21"/><rect class="f" x="0.9" y="0.9" width="15.2" height="19.2"/></g><path class="b" d="M2307.587-11878.577h7.615" transform="translate(-1968.472 12224.904)"/><path class="c" d="M2307.587-11878.577h7.615" transform="translate(-1968.472 12229.493)"/><g class="d" transform="matrix(0.719, 0.695, -0.695, 0.719, 356.502, 339.279)"><path class="e" d="M 2.096166372299194 17.16238403320313 L 1.383056282997131 16.38125419616699 L -0.7387736439704895 14.05703353881836 L -1.000243663787842 13.7706241607666 L -1.000243663787842 13.38281345367432 L -1.000243663787842 0.0009739062516018748 L -1.000243663787842 -0.9990261197090149 L -0.0002436718787066638 -0.9990261197090149 L 4.397216320037842 -0.9990261197090149 L 5.397216320037842 -0.9990261197090149 L 5.397216320037842 0.0009739062516018748 L 5.397216320037842 13.38281345367432 L 5.397216320037842 13.79085350036621 L 5.111756324768066 14.08241367340088 L 2.836126327514648 16.4066333770752 L 2.096166372299194 17.16238403320313 Z"/><path class="g" d="M -0.0002436637878417969 0.0009737014770507813 L -0.0002436637878417969 13.38281440734863 L 2.121586322784424 15.70703411102295 L 4.397216320037842 13.38281440734863 L 4.397216320037842 0.0009737014770507813 L -0.0002436637878417969 0.0009737014770507813 M -2.000243663787842 -1.999025344848633 L -0.0002436637878417969 -1.999025344848633 L 4.397216320037842 -1.999025344848633 L 6.397216320037842 -1.999025344848633 L 6.397216320037842 0.0009737014770507813 L 6.397216320037842 13.38281440734863 L 6.397216320037842 14.19889354705811 L 5.826286315917969 14.78201389312744 L 3.550656318664551 17.10623359680176 L 2.070746421813965 18.61773300170898 L 0.6445262432098389 17.05547332763672 L -1.477303504943848 14.7312536239624 L -2.000243663787842 14.15843391418457 L -2.000243663787842 13.38281440734863 L -2.000243663787842 0.0009737014770507813 L -2.000243663787842 -1.999025344848633 Z"/></g></g></svg>