<svg xmlns="http://www.w3.org/2000/svg" width="17" height="17" viewBox="0 0 17 17"><defs><style>.a{fill:none;}.b{fill:#43515a;}</style></defs><rect class="a" width="17" height="17"/><path class="b" d="M16.929,15.439l-3.514-3.514a7.29,7.29,0,0,0,1.491-4.472A7.407,7.407,0,0,0,7.453,0,7.407,7.407,0,0,0,0,7.453a7.407,7.407,0,0,0,7.453,7.453,7.29,7.29,0,0,0,4.472-1.491l3.514,3.514ZM2.129,7.453A5.272,5.272,0,0,1,7.453,2.129a5.272,5.272,0,0,1,5.324,5.324,5.272,5.272,0,0,1-5.324,5.324A5.272,5.272,0,0,1,2.129,7.453Z"/></svg>