<svg xmlns="http://www.w3.org/2000/svg" width="12.548" height="18.822" viewBox="0 0 12.548 18.822"><defs><style>.a{fill:#fff;}</style></defs><g transform="translate(0 0)"><path class="a" d="M220.948,3.368,217.811.231h0q-.027-.027-.057-.052l-.028-.021-.034-.025-.034-.021-.032-.019L217.59.077l-.034-.016-.035-.013-.037-.013-.036-.009-.039-.009L217.368.01l-.034,0a.789.789,0,0,0-.155,0l-.034,0L217.1.017l-.039.009-.036.009-.037.013-.035.013-.034.016-.036.017-.032.019-.034.021-.034.025-.028.021q-.03.024-.057.052h0l-3.137,3.137a.784.784,0,1,0,1.109,1.109l1.8-1.8v9.086a.784.784,0,1,0,1.569,0V2.679l1.8,1.8a.784.784,0,1,0,1.109-1.109Z" transform="translate(-208.629 -0.001)"/><path class="a" d="M91.838,178.739l-1.8,1.8v-9.086a.784.784,0,1,0-1.569,0v9.086l-1.8-1.8a.784.784,0,0,0-1.109,1.109l3.137,3.137h0c.018.018.037.035.057.052l.028.021.034.025.034.021.032.019.036.017.034.016.035.013.037.013.036.009.039.009.042.006.034,0a.793.793,0,0,0,.155,0l.034,0,.042-.006.039-.009.036-.009.037-.013.035-.013.034-.016.036-.017.031-.019.034-.021.034-.025.028-.021c.02-.016.039-.033.057-.051h0l3.137-3.137a.784.784,0,1,0-1.109-1.109Z" transform="translate(-85.334 -164.393)"/></g></svg>