<svg xmlns="http://www.w3.org/2000/svg" width="14.537" height="18.612" viewBox="0 0 14.537 18.612"><defs><style>.a{fill:#43515a;stroke:rgba(0,0,0,0);stroke-miterlimit:10;}</style></defs><path class="a" d="M-19385.426-4497.066h-11.611a1.117,1.117,0,0,1-.963-1.222v-8.057a1.117,1.117,0,0,1,.963-1.222h.342v-1.606a5.479,5.479,0,0,1,5.3-5.5c.037,0,.092,0,.164,0s.127,0,.162,0a5.264,5.264,0,0,1,3.336,1.263,5.572,5.572,0,0,1,1.834,3.035h-2.365a3.2,3.2,0,0,0-2.971-2.03,3.218,3.218,0,0,0-3.2,3.232v1.606h6.4v-.029h2.264v.029h.342a1.117,1.117,0,0,1,.963,1.222v8.057A1.117,1.117,0,0,1-19385.426-4497.066Zm-5.807-7.769c-.053,0-.113,0-.162,0a1.453,1.453,0,0,0-1.354,1.466,1.45,1.45,0,0,0,.428,1.042v2.434a.519.519,0,0,0,.512.511h1.154a.519.519,0,0,0,.512-.511v-2.434a1.444,1.444,0,0,0,.428-1.042,1.453,1.453,0,0,0-1.354-1.466C-19391.117-4504.833-19391.18-4504.835-19391.232-4504.835Z" transform="translate(19398.5 4515.178)"/></svg>