<svg xmlns="http://www.w3.org/2000/svg" width="13.339" height="17.785" viewBox="0 0 13.339 17.785"><defs><style>.a{fill:#43515a;}</style></defs><path class="a" d="M76.969,6.67H67.705V5.187a2.964,2.964,0,0,1,5.677-1.193h2.336A5.188,5.188,0,0,0,65.482,5.187V6.67H64.371A.37.37,0,0,0,64,7.04V16.3a1.484,1.484,0,0,0,1.482,1.482H75.857A1.484,1.484,0,0,0,77.339,16.3V7.04A.37.37,0,0,0,76.969,6.67Zm-5.19,7.74a.371.371,0,0,1-.368.411H69.928a.371.371,0,0,1-.368-.411l.234-2.1a1.466,1.466,0,0,1-.606-1.192,1.482,1.482,0,1,1,2.964,0,1.466,1.466,0,0,1-.606,1.192Z" transform="translate(-64)"/></svg>